<svg id="Livello_1" data-name="Livello 1" xmlns="http://www.w3.org/2000/svg" viewBox="0 0 29.64 30.51"><defs><style>.cls-1{fill:#f9adcf;}.cls-2{fill:#f61958;}.cls-3{fill:#c40745;}</style></defs><title>Tavola disegno 641</title><path class="cls-1" d="M3.59,19a.43.43,0,0,1-.43-.43V11.67a.43.43,0,0,1,.86,0v6.87A.43.43,0,0,1,3.59,19Z"/><path class="cls-1" d="M14.82,12.56a.43.43,0,0,1-.43-.43V6.84a.43.43,0,0,1,.86,0v5.29A.43.43,0,0,1,14.82,12.56Z"/><path class="cls-1" d="M14.82,23.68a.43.43,0,0,1-.43-.43V18.62a.43.43,0,1,1,.86,0v4.63A.43.43,0,0,1,14.82,23.68Z"/><path class="cls-1" d="M26.05,18.79a.43.43,0,0,1-.43-.43V11.85a.43.43,0,1,1,.86,0v6.51A.43.43,0,0,1,26.05,18.79Z"/><path class="cls-1" d="M22.82,9.15a.48.48,0,0,1-.23-.07L17.6,6a.42.42,0,0,1-.13-.59.42.42,0,0,1,.59-.14l5,3.12a.42.42,0,0,1,.13.59.41.41,0,0,1-.36.21Z"/><path class="cls-1" d="M18,27.25a.43.43,0,0,1-.43-.43.44.44,0,0,1,.19-.36L22.9,23a.44.44,0,0,1,.6.12.43.43,0,0,1-.12.6l-5.15,3.43A.4.4,0,0,1,18,27.25Z"/><path class="cls-1" d="M6.69,9.23a.43.43,0,0,1-.43-.43.42.42,0,0,1,.2-.36l5.38-3.37a.43.43,0,1,1,.45.73h0L6.92,9.16a.39.39,0,0,1-.23.07Z"/><path class="cls-1" d="M11.65,27.25a.42.42,0,0,1-.24-.07L6.26,23.75a.43.43,0,0,1-.12-.6.44.44,0,0,1,.6-.12l5.15,3.43a.43.43,0,0,1-.24.79Z"/><path class="cls-1" d="M17.83,14.23a.43.43,0,0,1-.43-.43.41.41,0,0,1,.2-.36l4.92-3.21A.43.43,0,0,1,23,11l-4.92,3.21A.51.51,0,0,1,17.83,14.23Z"/><path class="cls-1" d="M22.56,20.36a.44.44,0,0,1-.25-.08l-4.15-2.92a.44.44,0,0,1-.1-.6.43.43,0,0,1,.6-.1l4.15,2.92a.43.43,0,0,1,.1.6.44.44,0,0,1-.35.18Z"/><path class="cls-1" d="M12,14.32a.48.48,0,0,1-.24-.07L6.12,10.61A.44.44,0,0,1,6,10a.43.43,0,0,1,.59-.12l5.59,3.64a.42.42,0,0,1,.13.59A.45.45,0,0,1,12,14.32Z"/><path class="cls-1" d="M6.81,20.55a.43.43,0,0,1-.43-.43.42.42,0,0,1,.19-.35l4.83-3.41a.43.43,0,0,1,.6.11.42.42,0,0,1-.1.59L7.06,20.47A.44.44,0,0,1,6.81,20.55Z"/><path class="cls-2" d="M14.82,19l-3.59-2V13.42l3.59,2Z"/><path class="cls-3" d="M14.82,19l3.59-2V13.42l-3.59,2Z"/><path class="cls-1" d="M11.23,13.42l3.59-2.06,3.59,2.06-3.59,2Z"/><path class="cls-2" d="M3.59,12.39,0,10.43V6.84l3.59,2Z"/><path class="cls-3" d="M3.59,12.39l3.59-2V6.84l-3.59,2Z"/><path class="cls-1" d="M0,6.84,3.59,4.78,7.18,6.84l-3.59,2Z"/><path class="cls-2" d="M3.59,25.43,0,23.47v-3.6l3.59,2Z"/><path class="cls-3" d="M3.59,25.43l3.59-2v-3.6l-3.59,2Z"/><path class="cls-1" d="M0,19.87l3.59-2.05,3.59,2.05-3.59,2Z"/><path class="cls-2" d="M26.05,12.39l-3.59-2V6.84l3.59,2Z"/><path class="cls-3" d="M26.05,12.39l3.59-2V6.84l-3.59,2Z"/><path class="cls-1" d="M22.46,6.84l3.59-2.06,3.59,2.06-3.59,2Z"/><path class="cls-2" d="M26.05,25.43l-3.59-2v-3.6l3.59,2Z"/><path class="cls-3" d="M26.05,25.43l3.59-2v-3.6l-3.59,2Z"/><path class="cls-1" d="M22.46,19.87l3.59-2.05,3.59,2.05-3.59,2Z"/><path class="cls-2" d="M14.82,7.61l-3.59-2V2.06l3.59,2Z"/><path class="cls-3" d="M14.82,7.61l3.59-2V2.06L14.82,4Z"/><path class="cls-1" d="M11.23,2.06,14.82,0l3.59,2.06L14.82,4Z"/><path class="cls-2" d="M14.82,30.51l-3.59-2V25l3.59,2Z"/><path class="cls-3" d="M14.82,30.51l3.59-2V25l-3.59,2Z"/><path class="cls-1" d="M11.23,25l3.59-2.06L18.41,25l-3.59,2Z"/></svg>