<svg id="Livello_1" data-name="Livello 1" xmlns="http://www.w3.org/2000/svg" viewBox="0 0 40.32 32.7"><defs><style>.cls-1{fill:#fe8420;}.cls-2{fill:#fff;}.cls-3{fill:#df5c0c;}.cls-4{fill:#f3c595;}</style></defs><title>Tavola disegno 639</title><path class="cls-1" d="M31.1,32.7H9.22c-.6,0-1.09-.37-1.09-.82s.49-.82,1.09-.82H31.1c.6,0,1.09.37,1.09.82S31.7,32.7,31.1,32.7Z"/><rect class="cls-2" x="0.57" y="0.57" width="39.19" height="21.55"/><path class="cls-1" d="M39.19,1.13V21.55H1.13V1.13H39.19M40.32,0H0V22.68H40.32V0Z"/><path class="cls-1" d="M38.82,26.76H1.5A1.5,1.5,0,0,1,0,25.26V22.68H40.32v2.58A1.5,1.5,0,0,1,38.82,26.76Z"/><polygon class="cls-1" points="27.26 31.07 13.06 31.07 14.19 26.76 26.13 26.76 27.26 31.07"/><polygon class="cls-3" points="26.13 26.76 14.19 26.76 13.91 27.82 26.41 27.82 26.13 26.76"/><polygon class="cls-3" points="13.06 31.07 27.26 31.07 26.98 30 13.34 30 13.06 31.07"/><circle class="cls-3" cx="19.9" cy="24.36" r="1.08"/><circle class="cls-1" cx="15.47" cy="18.41" r="1.34"/><circle class="cls-1" cx="24.83" cy="18.41" r="1.34"/><path class="cls-3" d="M26.17,17.75H14.54a1.34,1.34,0,0,1-1.19-1.94l1-2a.67.67,0,0,1,1.2.59l-1,2.05H26.17a.67.67,0,0,1,0,1.34Z"/><polygon class="cls-3" points="26.84 9.05 24.34 9.05 24.58 6.38 23.25 6.26 23 9.05 20.82 9.05 20.82 6.37 19.48 6.37 19.48 9.05 17.39 9.05 16.88 5.96 15.56 6.17 16.04 9.05 13.46 9.05 13.46 10.39 16.26 10.39 16.84 13.95 18.16 13.73 17.61 10.39 19.48 10.39 19.48 13.73 20.82 13.73 20.82 10.39 22.87 10.39 22.64 13.03 23.97 13.15 24.22 10.39 26.84 10.39 26.84 9.05"/><path class="cls-3" d="M15.77,15a2,2,0,0,1-1.93-1.46l-2.29-8-1.8-1.2a.67.67,0,1,1,.74-1.11l1.8,1.2a1.34,1.34,0,0,1,.53.69h0l14.72.67A.69.69,0,0,1,28,6a.65.65,0,0,1,.13.54l-1.05,5.26A2.69,2.69,0,0,1,24.8,13.9l-8.79,1ZM13.21,6.39l1.92,6.73a.66.66,0,0,0,.72.48l8.8-1A1.34,1.34,0,0,0,25.8,11.5L26.7,7Z"/><path class="cls-4" d="M12.06,5.72a.72.72,0,0,1-.42-.13L9.7,4.32a.74.74,0,0,1-.2-1,.75.75,0,0,1,1-.21l1.93,1.28a.73.73,0,0,1,.21,1A.74.74,0,0,1,12.06,5.72Z"/></svg>