<svg id="Livello_1" data-name="Livello 1" xmlns="http://www.w3.org/2000/svg" viewBox="0 0 31.07 29.5"><defs><style>.cls-1{fill:#df5c0c;}.cls-2{fill:#fe8420;}.cls-3{fill:#fff;}</style></defs><title>Tavola disegno 439</title><path class="cls-1" d="M16.32,0A14.75,14.75,0,1,0,31.07,14.75,14.76,14.76,0,0,0,16.32,0Z"/><path class="cls-1" d="M20.3,12.25l-.31,3h-2.4v8.56H14V15.27H12.34v-3H14v-2A3.34,3.34,0,0,1,17.62,6.7h2.63V9.65H18.34a.72.72,0,0,0-.75.82v1.78Z"/><path class="cls-2" d="M14.75,0A14.75,14.75,0,1,0,29.5,14.75,14.77,14.77,0,0,0,14.75,0Z"/><path class="cls-3" d="M18.73,12.25l-.31,3H16v8.56H12.46V15.27H10.77v-3h1.69v-2A3.34,3.34,0,0,1,16.05,6.7h2.64V9.65H16.78a.72.72,0,0,0-.76.82v1.78Z"/></svg>