<svg id="Livello_1" data-name="Livello 1" xmlns="http://www.w3.org/2000/svg" viewBox="0 0 40.86 22.66"><defs><style>.cls-1{fill:#fe8420;}.cls-2{fill:#df5c0c;}</style></defs><title>Tavola disegno 438</title><path class="cls-1" d="M19.42,22.47l-2-4.75h-11l-2,4.75H0L9.85,0h4.47L24,22.47ZM8,14h7.9L12,4.59Z"/><path class="cls-2" d="M36.75,22.47V20.38a5.58,5.58,0,0,1-2.31,1.7,8.4,8.4,0,0,1-3.24.58A6.9,6.9,0,0,1,28,22a5,5,0,0,1-2.84-4.64,4.55,4.55,0,0,1,1.7-3.77,7.63,7.63,0,0,1,4.81-1.39h5v-.45a2.89,2.89,0,0,0-1-2.35,4.4,4.4,0,0,0-2.88-.83,9.93,9.93,0,0,0-5.11,1.6L26.22,7.25A20.25,20.25,0,0,1,29.9,5.63a13.54,13.54,0,0,1,3.87-.49A7.65,7.65,0,0,1,39,6.74a5.73,5.73,0,0,1,1.88,4.49l0,11.24ZM35.28,18.6a3,3,0,0,0,1.44-2.1V15H32.39a4.64,4.64,0,0,0-2.46.5,1.78,1.78,0,0,0-.79,1.62A2.11,2.11,0,0,0,30,18.81a3.52,3.52,0,0,0,2.23.64A5.46,5.46,0,0,0,35.28,18.6Z"/></svg>